{
  "accessors": [
    {
      "bufferView": 1,
      "componentType": 5126,
      "count": 65532,
      "max": [
        10.538984298706055,
        -27.013404846191406,
        31.081462860107422
      ],
      "min": [
        -5.2697558403015137,
        -36.904365539550781,
        -30.915618896484375
      ],
      "type": "VEC3"
    },
    {
      "bufferView": 1,
      "byteOffset": 786384,
      "componentType": 5126,
      "count": 65532,
      "max": [
        0.99999654293060303,
        0.99997985363006592,
        0.99984449148178101
      ],
      "min": [
        -0.9999358057975769,
        -0.99999129772186279,
        -1
      ],
      "type": "VEC3"
    },
    {
      "bufferView": 2,
      "componentType": 5126,
      "count": 65532,
      "max": [
        1,
        1,
        1,
        1
      ],
      "min": [
        0,
        0,
        0.031372550874948502,
        1
      ],
      "type": "VEC4"
    },
    {
      "bufferView": 0,
      "componentType": 5125,
      "count": 313422,
      "max": [
        65531
      ],
      "min": [
        0
      ],
      "type": "SCALAR"
    },
    {
      "bufferView": 1,
      "byteOffset": 1572768,
      "componentType": 5126,
      "count": 65532,
      "max": [
        9.4221363067626953,
        -26.016115188598633,
        31.128713607788086
      ],
      "min": [
        -8.7590227127075195,
        -37.447624206542969,
        -30.911712646484375
      ],
      "type": "VEC3"
    },
    {
      "bufferView": 1,
      "byteOffset": 2359152,
      "componentType": 5126,
      "count": 65532,
      "max": [
        0.99997705221176147,
        0.99987292289733887,
        0.99994754791259766
      ],
      "min": [
        -0.99999785423278809,
        -0.99999904632568359,
        -0.99999994039535522
      ],
      "type": "VEC3"
    },
    {
      "bufferView": 2,
      "byteOffset": 1048512,
      "componentType": 5126,
      "count": 65532,
      "max": [
        0.9686274528503418,
        0.89019608497619629,
        0.94509804248809814,
        1
      ],
      "min": [
        0,
        0,
        0.015686275437474251,
        1
      ],
      "type": "VEC4"
    },
    {
      "bufferView": 0,
      "byteOffset": 1253688,
      "componentType": 5125,
      "count": 312249,
      "max": [
        65531
      ],
      "min": [
        0
      ],
      "type": "SCALAR"
    },
    {
      "bufferView": 1,
      "byteOffset": 3145536,
      "componentType": 5126,
      "count": 65532,
      "max": [
        10.534971237182617,
        -25.89594841003418,
        31.363016128540039
      ],
      "min": [
        -8.5536899566650391,
        -37.277191162109375,
        -30.32911491394043
      ],
      "type": "VEC3"
    },
    {
      "bufferView": 1,
      "byteOffset": 3931920,
      "componentType": 5126,
      "count": 65532,
      "max": [
        0.99998891353607178,
        0.99999958276748657,
        0.99894791841506958
      ],
      "min": [
        -0.99999493360519409,
        -0.99996453523635864,
        -0.99997007846832275
      ],
      "type": "VEC3"
    },
    {
      "bufferView": 2,
      "byteOffset": 2097024,
      "componentType": 5126,
      "count": 65532,
      "max": [
        0.90588235855102539,
        0.78039216995239258,
        0.89019608497619629,
        1
      ],
      "min": [
        0,
        0,
        0.035294119268655777,
        1
      ],
      "type": "VEC4"
    },
    {
      "bufferView": 0,
      "byteOffset": 2502684,
      "componentType": 5125,
      "count": 311340,
      "max": [
        65531
      ],
      "min": [
        0
      ],
      "type": "SCALAR"
    },
    {
      "bufferView": 1,
      "byteOffset": 4718304,
      "componentType": 5126,
      "count": 65532,
      "max": [
        9.9405755996704102,
        -25.905017852783203,
        31.061151504516602
      ],
      "min": [
        -8.8570470809936523,
        -36.918434143066406,
        -30.908370971679688
      ],
      "type": "VEC3"
    },
    {
      "bufferView": 1,
      "byteOffset": 5504688,
      "componentType": 5126,
      "count": 65532,
      "max": [
        0.99999529123306274,
        0.99998807907104492,
        0.99991065263748169
      ],
      "min": [
        -0.99999767541885376,
        -0.99980688095092773,
        -0.99999874830245972
      ],
      "type": "VEC3"
    },
    {
      "bufferView": 2,
      "byteOffset": 3145536,
      "componentType": 5126,
      "count": 65532,
      "max": [
        0.90588235855102539,
        0.83921569585800171,
        0.92941176891326904,
        1
      ],
      "min": [
        0,
        0,
        0.035294119268655777,
        1
      ],
      "type": "VEC4"
    },
    {
      "bufferView": 0,
      "byteOffset": 3748044,
      "componentType": 5125,
      "count": 314679,
      "max": [
        65531
      ],
      "min": [
        0
      ],
      "type": "SCALAR"
    },
    {
      "bufferView": 1,
      "byteOffset": 6291072,
      "componentType": 5126,
      "count": 65532,
      "max": [
        10.242791175842285,
        -25.743991851806641,
        31.42729377746582
      ],
      "min": [
        -8.9186334609985352,
        -37.837932586669922,
        -30.9166259765625
      ],
      "type": "VEC3"
    },
    {
      "bufferView": 1,
      "byteOffset": 7077456,
      "componentType": 5126,
      "count": 65532,
      "max": [
        0.99996888637542725,
        0.99999958276748657,
        0.99979901313781738
      ],
      "min": [
        -0.99999904632568359,
        -0.99998944997787476,
        -0.99999994039535522
      ],
      "type": "VEC3"
    },
    {
      "bufferView": 2,
      "byteOffset": 4194048,
      "componentType": 5126,
      "count": 65532,
      "max": [
        0.88627451658248901,
        0.78431373834609985,
        0.92156863212585449,
        1
      ],
      "min": [
        0,
        0,
        0.019607843831181526,
        1
      ],
      "type": "VEC4"
    },
    {
      "bufferView": 0,
      "byteOffset": 5006760,
      "componentType": 5125,
      "count": 314262,
      "max": [
        65531
      ],
      "min": [
        0
      ],
      "type": "SCALAR"
    },
    {
      "bufferView": 1,
      "byteOffset": 7863840,
      "componentType": 5126,
      "count": 65532,
      "max": [
        10.415423393249512,
        -25.745874404907227,
        31.088275909423828
      ],
      "min": [
        -8.8624334335327148,
        -37.557090759277344,
        -30.838048934936523
      ],
      "type": "VEC3"
    },
    {
      "bufferView": 1,
      "byteOffset": 8650224,
      "componentType": 5126,
      "count": 65532,
      "max": [
        0.99998056888580322,
        0.99999380111694336,
        0.9996638298034668
      ],
      "min": [
        -0.99998682737350464,
        -0.99997460842132568,
        -0.99966567754745483
      ],
      "type": "VEC3"
    },
    {
      "bufferView": 2,
      "byteOffset": 5242560,
      "componentType": 5126,
      "count": 65532,
      "max": [
        0.96078431606292725,
        0.75686275959014893,
        0.89803922176361084,
        1
      ],
      "min": [
        0,
        0,
        0.011764706112444401,
        1
      ],
      "type": "VEC4"
    },
    {
      "bufferView": 0,
      "byteOffset": 6263808,
      "componentType": 5125,
      "count": 317280,
      "max": [
        65531
      ],
      "min": [
        0
      ],
      "type": "SCALAR"
    },
    {
      "bufferView": 1,
      "byteOffset": 9436608,
      "componentType": 5126,
      "count": 65532,
      "max": [
        10.538984298706055,
        -25.757997512817383,
        31.413129806518555
      ],
      "min": [
        -8.8676900863647461,
        -37.848758697509766,
        -30.915533065795898
      ],
      "type": "VEC3"
    },
    {
      "bufferView": 1,
      "byteOffset": 10222992,
      "componentType": 5126,
      "count": 65532,
      "max": [
        0.999980628490448,
        0.99996888637542725,
        0.99987554550170898
      ],
      "min": [
        -0.99998372793197632,
        -0.99999016523361206,
        -0.99999606609344482
      ],
      "type": "VEC3"
    },
    {
      "bufferView": 2,
      "byteOffset": 6291072,
      "componentType": 5126,
      "count": 65532,
      "max": [
        0.93333333730697632,
        0.80000001192092896,
        0.94509804248809814,
        1
      ],
      "min": [
        0,
        0,
        0.015686275437474251,
        1
      ],
      "type": "VEC4"
    },
    {
      "bufferView": 0,
      "byteOffset": 7532928,
      "componentType": 5125,
      "count": 309195,
      "max": [
        65531
      ],
      "min": [
        0
      ],
      "type": "SCALAR"
    },
    {
      "bufferView": 1,
      "byteOffset": 11009376,
      "componentType": 5126,
      "count": 65532,
      "max": [
        10.375736236572266,
        -25.742019653320312,
        31.383085250854492
      ],
      "min": [
        -8.805171012878418,
        -37.820610046386719,
        -30.915594100952148
      ],
      "type": "VEC3"
    },
    {
      "bufferView": 1,
      "byteOffset": 11795760,
      "componentType": 5126,
      "count": 65532,
      "max": [
        0.99998891353607178,
        0.99993127584457397,
        0.99994754791259766
      ],
      "min": [
        -0.9999924898147583,
        -0.99999129772186279,
        -0.99999982118606567
      ],
      "type": "VEC3"
    },
    {
      "bufferView": 2,
      "byteOffset": 7339584,
      "componentType": 5126,
      "count": 65532,
      "max": [
        0.9843137264251709,
        0.98823529481887817,
        0.98823529481887817,
        1
      ],
      "min": [
        0,
        0,
        0.015686275437474251,
        1
      ],
      "type": "VEC4"
    },
    {
      "bufferView": 0,
      "byteOffset": 8769708,
      "componentType": 5125,
      "count": 288705,
      "max": [
        65531
      ],
      "min": [
        0
      ],
      "type": "SCALAR"
    },
    {
      "bufferView": 1,
      "byteOffset": 12582144,
      "componentType": 5126,
      "count": 65532,
      "max": [
        10.534971237182617,
        -25.748516082763672,
        31.393545150756836
      ],
      "min": [
        -8.8970394134521484,
        -37.848758697509766,
        -30.915618896484375
      ],
      "type": "VEC3"
    },
    {
      "bufferView": 1,
      "byteOffset": 13368528,
      "componentType": 5126,
      "count": 65532,
      "max": [
        0.99999654293060303,
        0.99998676776885986,
        0.99984449148178101
      ],
      "min": [
        -0.99999785423278809,
        -0.99998080730438232,
        -1
      ],
      "type": "VEC3"
    },
    {
      "bufferView": 2,
      "byteOffset": 8388096,
      "componentType": 5126,
      "count": 65532,
      "max": [
        0.95686274766921997,
        0.83529412746429443,
        0.94117647409439087,
        1
      ],
      "min": [
        0,
        0,
        0.015686275437474251,
        1
      ],
      "type": "VEC4"
    },
    {
      "bufferView": 0,
      "byteOffset": 9924528,
      "componentType": 5125,
      "count": 188256,
      "max": [
        65531
      ],
      "min": [
        0
      ],
      "type": "SCALAR"
    },
    {
      "bufferView": 1,
      "byteOffset": 14154912,
      "componentType": 5126,
      "count": 38682,
      "max": [
        10.533577919006348,
        -25.744472503662109,
        31.385009765625
      ],
      "min": [
        -8.8968687057495117,
        -37.826259613037109,
        -30.915592193603516
      ],
      "type": "VEC3"
    },
    {
      "bufferView": 1,
      "byteOffset": 14619096,
      "componentType": 5126,
      "count": 38682,
      "max": [
        0.99997270107269287,
        0.99996846914291382,
        0.99994754791259766
      ],
      "min": [
        -0.99998265504837036,
        -0.99998116493225098,
        -0.9999997615814209
      ],
      "type": "VEC3"
    },
    {
      "bufferView": 2,
      "byteOffset": 9436608,
      "componentType": 5126,
      "count": 38682,
      "max": [
        0.93725490570068359,
        0.80784314870834351,
        0.93725490570068359,
        1
      ],
      "min": [
        0,
        0,
        0.031372550874948502,
        1
      ],
      "type": "VEC4"
    },
    {
      "bufferView": 0,
      "byteOffset": 10677552,
      "componentType": 5125,
      "count": 54183,
      "max": [
        38681
      ],
      "min": [
        0
      ],
      "type": "SCALAR"
    }
  ],
  "asset": {
    "generator": "Sketchfab (OSG glTF plugin)",
    "version": "2.0"
  },
  "bufferViews": [
    {
      "buffer": 0,
      "byteLength": 10894284,
      "byteOffset": 0,
      "name": "ScalarBufferView",
      "target": 34963
    },
    {
      "buffer": 0,
      "byteLength": 15083280,
      "byteOffset": 10894284,
      "byteStride": 12,
      "name": "Vec4BufferView",
      "target": 34962
    },
    {
      "buffer": 0,
      "byteLength": 10055520,
      "byteOffset": 25977564,
      "byteStride": 16,
      "name": "MatrixBufferView",
      "target": 34962
    }
  ],
  "buffers": [
    {
      "byteLength": 36033084,
      "uri": "scene.bin"
    }
  ],
  "materials": [
    {
      "doubleSided": true,
      "emissiveFactor": [
        0,
        0,
        0
      ],
      "name": "Scene - Root",
      "pbrMetallicRoughness": {
        "baseColorFactor": [
          1,
          1,
          1,
          1
        ],
        "metallicFactor": 0.29999999999999999,
        "roughnessFactor": 0.65000000000000002
      }
    }
  ],
  "meshes": [
    {
      "name": "Group57167",
      "primitives": [
        {
          "attributes": {
            "COLOR_0": 2,
            "NORMAL": 1,
            "POSITION": 0
          },
          "indices": 3,
          "material": 0,
          "mode": 4
        },
        {
          "attributes": {
            "COLOR_0": 6,
            "NORMAL": 5,
            "POSITION": 4
          },
          "indices": 7,
          "material": 0,
          "mode": 4
        },
        {
          "attributes": {
            "COLOR_0": 10,
            "NORMAL": 9,
            "POSITION": 8
          },
          "indices": 11,
          "material": 0,
          "mode": 4
        },
        {
          "attributes": {
            "COLOR_0": 14,
            "NORMAL": 13,
            "POSITION": 12
          },
          "indices": 15,
          "material": 0,
          "mode": 4
        },
        {
          "attributes": {
            "COLOR_0": 18,
            "NORMAL": 17,
            "POSITION": 16
          },
          "indices": 19,
          "material": 0,
          "mode": 4
        },
        {
          "attributes": {
            "COLOR_0": 22,
            "NORMAL": 21,
            "POSITION": 20
          },
          "indices": 23,
          "material": 0,
          "mode": 4
        },
        {
          "attributes": {
            "COLOR_0": 26,
            "NORMAL": 25,
            "POSITION": 24
          },
          "indices": 27,
          "material": 0,
          "mode": 4
        },
        {
          "attributes": {
            "COLOR_0": 30,
            "NORMAL": 29,
            "POSITION": 28
          },
          "indices": 31,
          "material": 0,
          "mode": 4
        },
        {
          "attributes": {
            "COLOR_0": 34,
            "NORMAL": 33,
            "POSITION": 32
          },
          "indices": 35,
          "material": 0,
          "mode": 4
        },
        {
          "attributes": {
            "COLOR_0": 38,
            "NORMAL": 37,
            "POSITION": 36
          },
          "indices": 39,
          "material": 0,
          "mode": 4
        }
      ]
    }
  ],
  "nodes": [
    {
      "children": [
        1
      ],
      "name": "RootNode (gltf orientation matrix)",
      "rotation": [
        -0.70710678118654746,
        -0,
        -0,
        0.70710678118654757
      ]
    },
    {
      "children": [
        2
      ],
      "name": "RootNode (model correction matrix)"
    },
    {
      "children": [
        3
      ],
      "name": "1043_Scan_15.OBJ.cleaner.materialmerger.gles"
    },
    {
      "mesh": 0,
      "name": "Group57167"
    }
  ],
  "scene": 0,
  "scenes": [
    {
      "name": "OSG_Scene",
      "nodes": [
        0
      ]
    }
  ]
}

